<svg width="55" height="55" viewBox="0 0 55 55" fill="none" xmlns="http://www.w3.org/2000/svg">
<path d="M45.8332 18.3333L32.0832 4.58334H13.7498C12.5343 4.58334 11.3685 5.06622 10.5089 5.92576C9.64939 6.7853 9.1665 7.95109 9.1665 9.16667V45.8333C9.1665 47.0489 9.64939 48.2147 10.5089 49.0742C11.3685 49.9338 12.5343 50.4167 13.7498 50.4167H41.2498C42.4654 50.4167 43.6312 49.9338 44.4907 49.0742C45.3503 48.2147 45.8332 47.0489 45.8332 45.8333V18.3333ZM20.6248 43.5417H16.0415V22.9167H20.6248V43.5417ZM29.7915 43.5417H25.2082V29.7917H29.7915V43.5417ZM38.9582 43.5417H34.3748V36.6667H38.9582V43.5417ZM32.0832 20.625H29.7915V9.16667L41.2498 20.625H32.0832Z" fill="#B2D6FD"/>
</svg>
