<svg width="20" height="21" viewBox="0 0 20 21" fill="none" xmlns="http://www.w3.org/2000/svg">
<path d="M14 0.999847V4.99985" stroke="#111111" stroke-width="1.2" stroke-linecap="round" stroke-linejoin="round"/>
<path d="M6 0.999847V4.99985" stroke="#152370" stroke-width="1.2" stroke-linecap="round" stroke-linejoin="round"/>
<path d="M1 7.9997H19" stroke="#152370" stroke-width="1.2" stroke-linecap="round" stroke-linejoin="round"/>
<path fill-rule="evenodd" clip-rule="evenodd" d="M17 2.99969H3C1.895 2.99969 1 3.89469 1 4.99969V17.9997C1 19.1047 1.895 19.9997 3 19.9997H17C18.105 19.9997 19 19.1047 19 17.9997V4.99969C19 3.89469 18.105 2.99969 17 2.99969Z" stroke="#152370" stroke-width="1.2" stroke-linecap="round" stroke-linejoin="round"/>
<path d="M10.0127 11.729C9.87467 11.729 9.76267 11.841 9.76367 11.979C9.76367 12.117 9.87567 12.229 10.0137 12.229C10.1517 12.229 10.2637 12.117 10.2637 11.979C10.2637 11.841 10.1517 11.729 10.0127 11.729" stroke="#152370" stroke-linecap="round" stroke-linejoin="round"/>
<path d="M15.0127 11.729C14.8747 11.729 14.7627 11.841 14.7637 11.979C14.7637 12.117 14.8757 12.229 15.0137 12.229C15.1517 12.229 15.2637 12.117 15.2637 11.979C15.2637 11.841 15.1517 11.729 15.0127 11.729" stroke="#152370" stroke-linecap="round" stroke-linejoin="round"/>
<path d="M5.01268 15.7287C4.87468 15.7287 4.76268 15.8407 4.76368 15.9787C4.76368 16.1167 4.87568 16.2287 5.01368 16.2287C5.15168 16.2287 5.26368 16.1167 5.26368 15.9787C5.26368 15.8407 5.15168 15.7287 5.01268 15.7287" stroke="#152370" stroke-linecap="round" stroke-linejoin="round"/>
<path d="M10.0127 15.7287C9.87467 15.7287 9.76267 15.8407 9.76367 15.9787C9.76367 16.1167 9.87567 16.2287 10.0137 16.2287C10.1517 16.2287 10.2637 16.1167 10.2637 15.9787C10.2637 15.8407 10.1517 15.7287 10.0127 15.7287" stroke="#152370" stroke-linecap="round" stroke-linejoin="round"/>
</svg>
