<svg width="25" height="25" viewBox="0 0 25 25" fill="none" xmlns="http://www.w3.org/2000/svg">
<circle cx="12.5" cy="12.5" r="12.5" fill="#3EC70B"/>
<path d="M10.6071 13.7977L10.625 13.8169L10.6429 13.7977L17.6769 6.25228C17.9601 5.94846 18.4186 5.94846 18.7018 6.25228L19.7625 7.39007C20.0466 7.69487 20.0466 8.18973 19.7625 8.49456L11.1375 17.7467C10.8542 18.0506 10.3958 18.0506 10.1125 17.7467L5.23752 12.5172C4.95338 12.2124 4.95338 11.7176 5.23752 11.4127L6.29815 10.275L6.2803 10.2583L6.29816 10.275C6.58138 9.9711 7.03988 9.9711 7.3231 10.275L7.34096 10.2583L7.3231 10.275L10.6071 13.7977Z" fill="white" stroke="#0076F7" stroke-width="0.0488281"/>
</svg>
