<svg width="43" height="32" viewBox="0 0 43 32" fill="none" xmlns="http://www.w3.org/2000/svg">
<path d="M40.3121 13.4208C41.2996 14.7125 41.2996 16.4562 40.3121 17.7458C37.2017 21.8062 29.7392 30.1667 21.0267 30.1667C12.3142 30.1667 4.85167 21.8062 1.74126 17.7458C1.26081 17.1274 1 16.3665 1 15.5833C1 14.8002 1.26081 14.0393 1.74126 13.4208C4.85167 9.36042 12.3142 1 21.0267 1C29.7392 1 37.2017 9.36042 40.3121 13.4208V13.4208Z" stroke="black" stroke-width="2" stroke-linecap="round" stroke-linejoin="round"/>
<path d="M21.0267 21.8333C24.4785 21.8333 27.2767 19.0351 27.2767 15.5833C27.2767 12.1316 24.4785 9.33334 21.0267 9.33334C17.5749 9.33334 14.7767 12.1316 14.7767 15.5833C14.7767 19.0351 17.5749 21.8333 21.0267 21.8333Z" stroke="black" stroke-width="2" stroke-linecap="round" stroke-linejoin="round"/>
</svg>
