<svg width="28" height="28" viewBox="0 0 28 28" fill="none" xmlns="http://www.w3.org/2000/svg">
<path d="M9.91537 22.1666H9.33203C4.66536 22.1666 2.33203 21 2.33203 15.1666V9.33331C2.33203 4.66665 4.66536 2.33331 9.33203 2.33331H18.6654C23.332 2.33331 25.6654 4.66665 25.6654 9.33331V15.1666C25.6654 19.8333 23.332 22.1666 18.6654 22.1666H18.082C17.7204 22.1666 17.3704 22.3416 17.1487 22.6333L15.3987 24.9666C14.6287 25.9933 13.3687 25.9933 12.5987 24.9666L10.8487 22.6333C10.662 22.3766 10.2304 22.1666 9.91537 22.1666Z" stroke="#0060FF" stroke-width="2.25" stroke-miterlimit="10" stroke-linecap="round" stroke-linejoin="round"/>
<path d="M18.6629 12.8333H18.6733" stroke="#0060FF" stroke-width="3" stroke-linecap="round" stroke-linejoin="round"/>
<path d="M13.9949 12.8333H14.0054" stroke="#0060FF" stroke-width="3" stroke-linecap="round" stroke-linejoin="round"/>
<path d="M9.32888 12.8333H9.33936" stroke="#0060FF" stroke-width="3" stroke-linecap="round" stroke-linejoin="round"/>
</svg>
