<svg width="24" height="25" viewBox="0 0 24 25" fill="none" xmlns="http://www.w3.org/2000/svg">
<path d="M12 16C14.21 16 16 14.21 16 12V6.5C16 4.29 14.21 2.5 12 2.5C9.79 2.5 8 4.29 8 6.5V12C8 14.21 9.79 16 12 16Z" stroke="#0060FF" stroke-width="1.5" stroke-linecap="round" stroke-linejoin="round"/>
<path d="M4.34961 10.15V11.85C4.34961 16.07 7.77961 19.5 11.9996 19.5C16.2196 19.5 19.6496 16.07 19.6496 11.85V10.15" stroke="#0060FF" stroke-width="1.5" stroke-linecap="round" stroke-linejoin="round"/>
<path d="M10.6094 6.93C11.5094 6.6 12.4894 6.6 13.3894 6.93" stroke="#0060FF" stroke-width="1.5" stroke-linecap="round" stroke-linejoin="round"/>
<path d="M11.1992 9.05001C11.7292 8.91001 12.2792 8.91001 12.8092 9.05001" stroke="#0060FF" stroke-width="1.5" stroke-linecap="round" stroke-linejoin="round"/>
<path d="M12 19.5V22.5" stroke="#0060FF" stroke-width="1.5" stroke-linecap="round" stroke-linejoin="round"/>
</svg>
