<svg width="35" height="35" viewBox="0 0 35 35" fill="none" xmlns="http://www.w3.org/2000/svg">
<path d="M34.8823 17.2528L29.3003 12.8475C29.2536 12.8107 29.1975 12.7879 29.1384 12.7816C29.0793 12.7752 29.0196 12.7857 28.9662 12.8117C28.9128 12.8377 28.8678 12.8783 28.8363 12.9287C28.8049 12.9791 28.7883 13.0374 28.7885 13.0968V15.9273H19.0767V6.21538H21.9115C22.174 6.21538 22.3227 5.90915 22.1609 5.70353L17.7512 0.121379C17.722 0.0836053 17.6846 0.0530234 17.6417 0.0319821C17.5989 0.0109407 17.5518 0 17.504 0C17.4563 0 17.4092 0.0109407 17.3664 0.0319821C17.3235 0.0530234 17.2861 0.0836053 17.2569 0.121379L12.8472 5.70353C12.8105 5.75024 12.7877 5.80635 12.7813 5.86543C12.775 5.92452 12.7855 5.98419 12.8115 6.03761C12.8375 6.09103 12.8781 6.13604 12.9285 6.16748C12.9789 6.19892 13.0372 6.21552 13.0966 6.21538H15.927V15.9273H6.21526V13.0925C6.21526 12.83 5.90904 12.6812 5.70343 12.8431L0.121377 17.2528C0.0836038 17.282 0.0530224 17.3195 0.0319815 17.3623C0.0109405 17.4052 0 17.4523 0 17.5C0 17.5477 0.0109405 17.5948 0.0319815 17.6377C0.0530224 17.6805 0.0836038 17.718 0.121377 17.7472L5.69905 22.1569C5.90466 22.3188 6.21089 22.1744 6.21089 21.9075V19.0771H15.9226V28.789H13.0878C12.8254 28.789 12.6766 29.0952 12.8385 29.3008L17.2481 34.8786C17.375 35.0405 17.62 35.0405 17.7425 34.8786L22.1521 29.3008C22.314 29.0952 22.1696 28.789 21.9028 28.789H19.0767V19.0771H28.7885V21.9119C28.7885 22.1744 29.0947 22.3231 29.3003 22.1613L34.878 17.7515C34.9156 17.7219 34.9461 17.6843 34.9673 17.6413C34.9884 17.5983 34.9996 17.5511 35 17.5032C35.0004 17.4553 34.9901 17.408 34.9697 17.3646C34.9493 17.3213 34.9195 17.2831 34.8823 17.2528Z" fill="#AAAAAA"/>
</svg>
