<svg width="20" height="20" viewBox="0 0 20 20" fill="none" xmlns="http://www.w3.org/2000/svg">
<path d="M10.0007 10C12.3018 10 14.1673 8.13454 14.1673 5.83335C14.1673 3.53217 12.3018 1.66669 10.0007 1.66669C7.69946 1.66669 5.83398 3.53217 5.83398 5.83335C5.83398 8.13454 7.69946 10 10.0007 10Z" stroke="#0060FF" stroke-width="1.5" stroke-linecap="round" stroke-linejoin="round"/>
<path d="M2.8418 18.3333C2.8418 15.1083 6.05013 12.5 10.0001 12.5C10.8001 12.5 11.5751 12.6083 12.3001 12.8083" stroke="#0060FF" stroke-width="1.5" stroke-linecap="round" stroke-linejoin="round"/>
<path d="M18.3327 15C18.3327 15.2667 18.2994 15.525 18.2327 15.775C18.1577 16.1083 18.0244 16.4334 17.8494 16.7167C17.2744 17.6834 16.216 18.3334 14.9993 18.3334C14.141 18.3334 13.366 18.0083 12.7827 17.475C12.5327 17.2583 12.316 17 12.1493 16.7167C11.841 16.2167 11.666 15.625 11.666 15C11.666 14.1 12.0244 13.275 12.6077 12.675C13.216 12.05 14.066 11.6667 14.9993 11.6667C15.9827 11.6667 16.8744 12.0917 17.4744 12.775C18.0077 13.3667 18.3327 14.15 18.3327 15Z" stroke="#0060FF" stroke-width="1.5" stroke-miterlimit="10" stroke-linecap="round" stroke-linejoin="round"/>
<path d="M16.2411 14.9833H13.7578" stroke="#0060FF" stroke-width="1.5" stroke-miterlimit="10" stroke-linecap="round" stroke-linejoin="round"/>
<path d="M15 13.7667V16.2583" stroke="#0060FF" stroke-width="1.5" stroke-miterlimit="10" stroke-linecap="round" stroke-linejoin="round"/>
</svg>
