<svg width="20" height="6" viewBox="0 0 20 6" fill="none" xmlns="http://www.w3.org/2000/svg">
<path d="M10.0013 0.666656C8.71797 0.666656 7.66797 1.71666 7.66797 2.99999C7.66797 4.28332 8.71797 5.33332 10.0013 5.33332C11.2846 5.33332 12.3346 4.28332 12.3346 2.99999C12.3346 1.71666 11.2846 0.666656 10.0013 0.666656ZM17.0013 0.666656C15.718 0.666656 14.668 1.71666 14.668 2.99999C14.668 4.28332 15.718 5.33332 17.0013 5.33332C18.2846 5.33332 19.3346 4.28332 19.3346 2.99999C19.3346 1.71666 18.2846 0.666656 17.0013 0.666656ZM3.0013 0.666656C1.71797 0.666656 0.667969 1.71666 0.667969 2.99999C0.667969 4.28332 1.71797 5.33332 3.0013 5.33332C4.28464 5.33332 5.33464 4.28332 5.33464 2.99999C5.33464 1.71666 4.28464 0.666656 3.0013 0.666656Z" fill="#0060FF"/>
</svg>
